<?xml version="1.0" encoding="utf-8"?>
<!-- Generator: Adobe Illustrator 21.1.0, SVG Export Plug-In . SVG Version: 6.00 Build 0)  -->
<svg version="1.1" id="Calque_1" xmlns="http://www.w3.org/2000/svg" xmlns:xlink="http://www.w3.org/1999/xlink" x="0px" y="0px"
	 viewBox="0 0 155.1 79.4" style="enable-background:new 0 0 155.1 79.4;" xml:space="preserve">
<style type="text/css">
	.st0{fill:#666666;}
	.st1{fill:#40B3C3;}
	.st2{opacity:0.28;fill:#40B3C3;}
</style>
<g>
	<path class="st0" d="M93.5,60c-0.8,1.1-1.2,2.6-1.2,4.5c0,4,1.5,6,4.5,6c1.3,0,2.8-0.3,4.6-0.9v3.2c-1.5,0.6-3.1,0.9-4.9,0.9
		c-2.6,0-4.6-0.8-6-2.4s-2.1-3.8-2.1-6.8c0-1.9,0.3-3.5,1-4.9c0.7-1.4,1.6-2.5,2.9-3.2c1.3-0.7,2.8-1.1,4.5-1.1
		c1.7,0,3.5,0.4,5.2,1.3l-1.2,3.1c-0.7-0.3-1.3-0.6-2-0.8s-1.3-0.4-2-0.4C95.4,58.4,94.3,58.9,93.5,60z M106.2,73.4h3.7v-19h-3.7
		V73.4z M115,73.4h3.7V59.7H115V73.4z M116.9,54.4c-1.4,0-2,0.6-2,1.8c0,1.2,0.7,1.8,2,1.8c0.7,0,1.2-0.2,1.5-0.5
		c0.3-0.3,0.5-0.8,0.5-1.4C118.9,55,118.3,54.4,116.9,54.4z M131.7,59.4c-0.9,0-1.8,0.2-2.5,0.5s-1.3,0.8-1.7,1.5h-0.2l-0.5-1.7
		h-2.8v13.7h3.7v-6.4c0-1.6,0.2-2.8,0.7-3.5c0.5-0.7,1.2-1,2.3-1c0.8,0,1.3,0.2,1.7,0.7s0.5,1.2,0.5,2.2v8h3.7v-8.9
		c0-1.6-0.4-2.9-1.2-3.7C134.5,59.9,133.3,59.4,131.7,59.4z M153.5,61.6l-2.1,0.5c0.4,0.6,0.6,1.3,0.6,2.1c0,1.5-0.5,2.6-1.5,3.4
		c-1,0.8-2.4,1.2-4.3,1.2l-0.7,0l-0.5-0.1c-0.4,0.3-0.6,0.6-0.6,1c0,0.5,0.7,0.8,2.1,0.8h2.3c1.5,0,2.6,0.3,3.4,1
		c0.8,0.6,1.2,1.6,1.2,2.8c0,1.6-0.7,2.8-2,3.7c-1.3,0.9-3.2,1.3-5.7,1.3c-1.9,0-3.4-0.3-4.4-1c-1-0.7-1.5-1.6-1.5-2.8
		c0-0.8,0.3-1.5,0.8-2.1c0.5-0.6,1.3-0.9,2.3-1.2c-0.4-0.2-0.7-0.4-1-0.8c-0.3-0.4-0.4-0.8-0.4-1.2c0-0.5,0.2-1,0.5-1.3
		c0.3-0.3,0.7-0.7,1.3-1c-0.7-0.3-1.3-0.8-1.7-1.5s-0.6-1.5-0.6-2.4c0-1.5,0.5-2.6,1.5-3.5c1-0.8,2.4-1.2,4.2-1.2
		c0.4,0,0.8,0,1.4,0.1s0.9,0.1,1,0.2h4.8V61.6z M143.7,74c-0.5,0.3-0.7,0.7-0.7,1.3c0,0.5,0.2,0.9,0.7,1.2s1.2,0.4,2.1,0.4
		c1.3,0,2.4-0.2,3.1-0.6c0.8-0.4,1.1-0.9,1.1-1.5c0-0.5-0.2-0.9-0.7-1.1c-0.4-0.2-1.1-0.3-2.1-0.3h-1.9
		C144.7,73.5,144.1,73.7,143.7,74z M148.4,64.2c0-1.6-0.7-2.5-2-2.5c-1.4,0-2.1,0.8-2.1,2.5c0,0.7,0.2,1.3,0.5,1.8
		c0.3,0.4,0.9,0.6,1.5,0.6c0.7,0,1.2-0.2,1.5-0.6C148.3,65.5,148.4,64.9,148.4,64.2z"/>
	<g>
		<path id="path4143_4_" class="st1" d="M5.5,0c0.1,0,0.3,0.1,0.4,0.1c2.7,0.9,5,2.2,5,2.3c2.1,1.5,4,3.4,5.3,5.6
			c0.5,0.7,5.7,8.6,9.5,14.2c-0.9,1.3-1.7,2.5-2.3,3.5c0-0.1-0.1-0.1-0.1-0.2c-3.9-5.8-10.7-16-11.2-16.8C11.2,7.3,9.9,6,8.3,5
			c0,0-1.7-1.1-3.9-1.8C3.5,2.9,2,2.6,0,2.4v46.8c2-0.2,3.5-0.5,4.4-0.8c2.2-0.7,3.9-1.8,3.9-1.8c1.7-1.1,2.9-2.4,3.9-3.8
			c0.5-0.7,7.3-11,11.2-16.8c3.2-4.9,11.3-17.1,11.9-17.9c1.4-2.2,3.2-4.1,5.3-5.6c0-0.1,2.3-1.4,5-2.3L46.1,0H5.5z M51.5,2.4
			c-2,0.2-3.5,0.5-4.4,0.8C44.9,3.9,43.2,5,43.2,5c-1.6,1-2.9,2.3-3.9,3.8c-0.5,0.7-7.3,11-11.2,16.8C25,30.4,16.9,42.6,16.3,43.4
			c-1.4,2.2-3.2,4.1-5.3,5.6c0,0.1-2.3,1.4-5,2.3l-0.6,0.1h40.6l-0.4-0.1c-2.7-0.9-5-2.2-5-2.3c-2.1-1.5-4-3.4-5.3-5.6
			c-0.5-0.7-5.7-8.6-9.5-14.2c0.9-1.3,1.7-2.5,2.3-3.5c0,0.1,0.1,0.1,0.1,0.2c3.9,5.8,10.7,16,11.2,16.8c1,1.4,2.2,2.7,3.9,3.8
			c0,0,1.7,1.1,3.9,1.8c0.9,0.3,2.4,0.5,4.4,0.8v2.3h0.1V2.4z"/>
		<path id="path7-3_3_" class="st2" d="M28,25.7c-0.6,0.9-1.4,2.1-2.3,3.5
			c3.8,5.7,9,13.6,9.5,14.2c1.4,2.2,3.2,4.1,5.3,5.6c0,0.1,2.3,1.4,5,2.3c0.2,0,0.4,0.1,0.6,0.1h5.3v-2.4c-2-0.2-3.5-0.5-4.4-0.8
			c-2.2-0.7-3.9-1.8-3.9-1.8c-1.6-1-2.9-2.3-3.9-3.8C38.8,42,32,31.8,28.1,26l0,0C28.1,25.9,28.1,25.8,28,25.7 M5.3,0H0v2.4
			c2,0.2,3.5,0.5,4.4,0.8C6.6,3.9,8.3,5,8.3,5c1.6,1,2.9,2.3,3.9,3.8c0.5,0.7,7.3,11,11.2,16.8l0,0c0,0.1,0.1,0.1,0.1,0.2
			c0.6-0.9,1.4-2.1,2.3-3.5C22,16.6,16.8,8.7,16.3,8c-1.4-2.2-3.2-4.1-5.3-5.6c0-0.1-2.3-1.4-5-2.3C5.8,0.1,5.6,0,5.3,0"/>
		<path class="st1" d="M144.2,10.3c-5.3,0-10.1,2.4-10.1,8.5s4.3,8,9.6,9.4c4.9,1.4,9,2.4,9,6.9c0,5.4-3.9,7.1-8.2,7.1
			c-3.9,0-7.6-1-10.4-2.8l-1.1,2.1c3.3,2.2,7.3,3,11.6,3c5.7,0,10.6-2.5,10.6-9.4c0-6.2-4.8-7.6-10.4-9.2c-5.1-1.4-8.1-2.7-8.1-7
			c0-4.9,3.4-6.3,7.7-6.3c2.8,0,5.6,0.4,7.9,1.7l1-2.2C150.3,10.7,147.2,10.3,144.2,10.3z"/>
		<path class="st1" d="M119.7,10.2v18.2c0,8.1-1.2,13.8-8.8,13.8h-0.7c-7.7,0-8.8-5.7-8.8-13.8V10.3c-0.9,0.5-1.9,1-2.6,1.7v17.2
			c0,7.2,1.3,15.3,11,15.3h1.5c9.6,0,11-8.1,11.1-15.4V11.9C121.5,11.2,120.6,10.7,119.7,10.2z"/>
		<path class="st1" d="M76.5,10.3c-6,0-13.1,2.2-13.1,17.2c0,13.9,6.1,17.1,13.6,17.1c4,0,7.6-0.7,10.6-2.6l-1-2.2
			c-3.1,1.8-6,2.4-9.6,2.4c-5.9,0-10.6-2.1-11-12.7l0-1.3l22.9,0l0,0v-0.9C89,14.5,84.3,10.3,76.5,10.3z M65.9,25.9
			c0.2-11.2,5.2-13.3,10.5-13.3c5.9,0,9.9,3.1,9.9,13.3H65.9z"/>
	</g>
</g>
</svg>
